<svg viewBox="0 0 40 40" fill="none" xmlns="http://www.w3.org/2000/svg">
<ellipse cx="20" cy="20" rx="20" ry="19" fill="#F1C40F"/>
<path d="M18.9004 14.958V16.1543H15.5166V25H14.1357V16.1543H10.752V14.958H18.9004ZM22.04 21.7598C22.0719 22.3294 22.2064 22.792 22.4434 23.1475C22.8945 23.8128 23.6898 24.1455 24.8291 24.1455C25.3395 24.1455 25.8044 24.0726 26.2236 23.9268C27.0348 23.6442 27.4404 23.1383 27.4404 22.4092C27.4404 21.8623 27.2695 21.4727 26.9277 21.2402C26.5814 21.0124 26.0391 20.8141 25.3008 20.6455L23.9404 20.3379C23.0518 20.1374 22.4229 19.9163 22.0537 19.6748C21.4157 19.2555 21.0967 18.6289 21.0967 17.7949C21.0967 16.8926 21.4089 16.152 22.0332 15.5732C22.6576 14.9945 23.5417 14.7051 24.6855 14.7051C25.7383 14.7051 26.6315 14.9603 27.3652 15.4707C28.1035 15.9766 28.4727 16.7878 28.4727 17.9043H27.1943C27.126 17.3665 26.9801 16.9541 26.7568 16.667C26.3421 16.1429 25.638 15.8809 24.6445 15.8809C23.8424 15.8809 23.266 16.0495 22.915 16.3867C22.5641 16.724 22.3887 17.1159 22.3887 17.5625C22.3887 18.0547 22.5938 18.4147 23.0039 18.6426C23.2728 18.7884 23.8812 18.9707 24.8291 19.1895L26.2373 19.5107C26.9163 19.6657 27.4404 19.8776 27.8096 20.1465C28.4476 20.6159 28.7666 21.2972 28.7666 22.1904C28.7666 23.3024 28.361 24.0977 27.5498 24.5762C26.7432 25.0547 25.8044 25.2939 24.7334 25.2939C23.4847 25.2939 22.5072 24.9749 21.8008 24.3369C21.0944 23.7035 20.748 22.8444 20.7617 21.7598H22.04Z" fill="#130F02" fill-opacity="0.72"/>
</svg>
